PathFileType	4	(X/Y/Z)	C:/Users/beibeiliu/ov580/test_trc/User3\sequence.9_training_dense_left.trc
DataRate	CameraRate	NumFrames	NumMarkers	Units	OrigDataRate	OrigDataStartFrame	OrigNumFrames
120	120	9	19	mm	120	25	73
Frame#	Time	ThumbCMC			ThumbMCP			ThumbIP			ThumbTip			IndexMCP			IndexPIP			IndexTip			MiddleMCP			MiddlePIP			MiddleTip			RingMCP			RingPIP			RingTip			PinkyMCP			PinkyPIP			PinkyTip			BackHand1			BackHand2			BackHand3	
		X0	Y0	Z0	X1	Y1	Z1	X2	Y2	Z2	X3	Y3	Z3	X4	Y4	Z4	X5	Y5	Z5	X6	Y6	Z6	X7	Y7	Z7	X8	Y8	Z8	X9	Y9	Z9	X10	Y10	Z10	X11	Y11	Z11	X12	Y12	Z12	X13	Y13	Z13	X14	Y14	Z14	X15	Y15	Z15	X16	Y16	Z16	X17	Y17	Z17	X18	Y18	Z18	
24	0.2	-116.087	27.8381	-17.5433	-100.27	32.8344	-43.8752	-87.2824	33.1252	-65.054	-78.2005	39.8989	-85.7618	-86.4907	0.270736	-86.2931	-72.0869	-3.69687	-105.12	-57.137	-8.21816	-126.905	-80.6262	-20.7745	-85.9683	-64.0902	-24.1601	-107.213	-44.1078	-28.1402	-134.772	-74.4944	-37.3484	-72.3128	-61.8845	-38.3133	-91.2847	-45.5012	-43.3514	-109.637	-73.9706	-46.6654	-53.4837	-62.616	-51.2415	-66.9754	-49.7856	-50.434	-86.8862	-113.787	-32.8034	-34.8532	-127.251	-35.9459	-9.6638	-128.561	-6.22389	-28.7966	
25	0.208333	-130.329	20.6474	-19.2031	-123.345	32.1019	-48.1009	-113.193	34.8101	-78.1186	-107.032	41.241	-95.2234	-97.0839	-2.69232	-92.0729	-83.6744	-1.49019	-114.316	-69.9083	-2.60665	-134.276	-86.3037	-17.1375	-92.5432	-72.8337	-14.0427	-115.036	-54.0964	-14.347	-139.428	-75.4671	-29.6873	-77.0718	-62.0684	-28.868	-97.9416	-46.4038	-29.4671	-118.692	-71.8887	-35.1254	-57.2403	-58.9372	-36.6028	-73.867	-46.5918	-36.1847	-91.6923	-110.648	-37.6081	-31.6743	-126.014	-36.3768	-11.7203	-133.87	-12.1008	-31.9757	
26	0.216667	-148.423	12.4075	-26.1745	-144.214	20.0654	-54.5297	-135.995	21.8836	-81.4956	-130.79	27.2863	-101.642	-114.952	-3.10099	-94.1058	-99.4819	-4.43134	-114.774	-88.3209	-2.92924	-135.292	-92.4121	-17.2914	-94.3184	-85.1503	-10.0263	-116.627	-72.3118	-7.56483	-142.859	-83.4714	-19.9761	-82.1641	-72.1506	-16.8862	-102.45	-60.5791	-14.7327	-125.742	-72.1574	-26.3845	-57.7036	-64.0276	-20.7951	-78.755	-54.2942	-22.9969	-95.9278	-105.557	-36.8883	-35.6607	-120.585	-42.328	-6.15137	-139.461	-20.4157	-34.0412	
27	0.225	-156.149	-2.36317	-25.466	-160.596	5.80336	-54.0856	-156.679	6.00908	-87.3007	-157.025	12.0171	-107.494	-123.19	-14.3975	-93.737	-115.294	-11.8577	-122.18	-101.317	-10.7655	-140.311	-104.559	-19.6195	-99.649	-93.5315	-15.9835	-121.604	-86.7595	-10.3616	-153.315	-88.016	-21.1129	-83.2381	-79.8147	-15.6852	-107.699	-71.432	-13.7468	-127.354	-75.6515	-21.8479	-62.0471	-72.5179	-15.7386	-79.5592	-63.0893	-14.0275	-102.056	-109.699	-36.3507	-35.9277	-116.047	-42.4938	-6.35303	-139.625	-31.4756	-35.5419	
28	0.233333	-165.192	-13.5472	-28.591	-165.527	-7.80362	-52.2911	-166.106	-6.98969	-83.7321	-167.622	-3.29948	-104.19	-131.88	-25.1666	-98.3756	-124.072	-22.8416	-121.138	-112.006	-21.2646	-148.124	-114.887	-27.8856	-98.3145	-106.446	-23.6199	-127.098	-97.7993	-18.9799	-151.595	-97.1172	-24.0551	-89.4942	-92.9866	-21.1481	-112.37	-85.9405	-18.6467	-133.315	-86.0554	-22.4804	-66.7461	-78.2857	-18.147	-88.4047	-72.5276	-17.5045	-109.419	-107.399	-42.7627	-39.9132	-118.195	-47.1135	-7.19066	-143.633	-42.0631	-33.0185	
29	0.241667	-171.729	-22.5399	-23.3308	-173.294	-21.1774	-52.4514	-182.442	-21.3251	-81.6114	-183.901	-18.3569	-102.905	-142.067	-36.5768	-95.584	-138.558	-35.3751	-122.412	-131.978	-33.9164	-149.533	-120.733	-38.8485	-100.848	-118.184	-34.2572	-126.992	-114.087	-30.9487	-159.229	-108.452	-32.0445	-90.6914	-104.383	-29.4486	-113.594	-96.6204	-28.6128	-136.326	-96.7612	-26.3892	-70.6411	-90.6987	-24.4723	-93.5452	-87.5298	-23.2618	-114.632	-118.108	-47.5225	-37.3234	-121.059	-49.681	-10.0864	-149.84	-50.2136	-31.0153	
30	0.25	-176.222	-32.8427	-22.6224	-187.82	-34.0438	-50.4467	-190.372	-33.5711	-75.9262	-194.655	-34.6327	-100.653	-159.072	-50.4094	-98.3374	-152.989	-48.7781	-118.453	-146.56	-48.6394	-148.158	-135.255	-49.2233	-97.6664	-133.352	-47.3035	-126.796	-131.509	-44.657	-155.447	-121.413	-42.7531	-93.4719	-117.479	-40.5594	-116.37	-119.636	-40.3809	-140.92	-107.273	-33.6506	-75.9887	-104.2	-31.4595	-94.5202	-102.624	-34.2897	-120.548	-120.399	-55.1609	-39.835	-123.814	-54.1969	-8.252	-154.326	-58.4382	-28.5686	
31	0.258333	-187.483	-34.0714	-15.601	-201.999	-35.2698	-43.85	-205.202	-38.5114	-69.4067	-214.722	-39.5604	-91.871	-175.448	-57.9564	-92.9393	-178.019	-58.6364	-116.088	-175.328	-59.186	-143.383	-157.64	-59.392	-99.9537	-159.016	-57.8767	-126.149	-161.708	-58.7151	-156.769	-138.08	-50.6554	-91.2506	-141.179	-50.5992	-112.789	-142.668	-52.5768	-140.715	-121.345	-42.0056	-76.0793	-121.754	-42.7227	-99.8205	-123.588	-45.1119	-117.926	-135.25	-60.8699	-38.3595	-135.558	-57.0405	-7.25287	-170.669	-60.5327	-25.2085	
32	0.266667	-195.357	-21.8593	-12.6872	-210.08	-20.3374	-36.9826	-221.543	-22.4651	-64.8216	-226.342	-24.4967	-85.8129	-203.243	-51.651	-81.7873	-204.151	-55.5215	-110.645	-203.597	-57.3856	-137.05	-182.726	-60.2743	-91.9293	-188.159	-62.2889	-119.278	-194.954	-60.5703	-150.618	-166.582	-57.6841	-88.8109	-168.167	-59.0429	-110.837	-172.882	-59.6754	-137.154	-142.865	-53.842	-79.0319	-150.96	-54.0438	-99.1284	-154.852	-57.551	-122.209	-155.723	-64.6939	-37.9821	-151.444	-58.9048	-6.643	-181.739	-53.3043	-19.6746	
